<svg xmlns="http://www.w3.org/2000/svg" viewBox="0 0 200 200">
  <circle cx="100" cy="100" r="96" fill="#f1f5f9"/>
  <g fill="none" stroke="#334155" stroke-width="6" stroke-linecap="round" stroke-linejoin="round">
    <path d="M100 40c40 20 60 55 60 90-40 0-75-20-95-60 8-14 20-24 35-30z"/>
    <path d="M100 40c-40 20-60 55-60 90 12 0 24-2 35-6" transform="translate(0,0)" opacity="0"/>
    <path d="M100 45c30 24 44 55 46 80"/>
    <path d="M65 90l20 8M75 108l22 6M88 124l20 4"/>
    <path d="M100 40l60 150" stroke-width="6"/>
  </g>
</svg>
